<?xml version="1.0" encoding="UTF-8"?>
<svg width="16px" height="16px" viewBox="0 0 16 16" version="1.1" xmlns="http://www.w3.org/2000/svg" xmlns:xlink="http://www.w3.org/1999/xlink">
    <title>删除</title>
    <defs>
        <filter id="filter-1">
            <feColorMatrix in="SourceGraphic" type="matrix" values="0 0 0 0 0.457645 0 0 0 0 0.453164 0 0 0 0 0.552146 0 0 0 1.000000 0"></feColorMatrix>
        </filter>
    </defs>
    <g id="页面-1" stroke="none" stroke-width="1" fill="none" fill-rule="evenodd">
        <g id="工作台-管理员后台" transform="translate(-260.000000, -88.000000)">
            <g id="删除" transform="translate(252.000000, 82.000000)" filter="url(#filter-1)">
                <g transform="translate(8.000000, 6.000000)">
                    <rect id="矩形" fill="#000000" fill-rule="nonzero" opacity="0" x="0" y="0" width="16" height="16"></rect>
                    <path d="M13.125,4.5 L10.75,4.5 L10.75,3.625 C10.75,3 10.25,2.5 9.625,2.5 L6.375,2.5 C5.75,2.5 5.25,3 5.25,3.625 L5.25,4.5 L2.875,4.5 C2.675,4.5 2.5,4.675 2.5,4.875 C2.5,5.075 2.675,5.25 2.875,5.25 L13.125,5.25 C13.325,5.25 13.5,5.075 13.5,4.875 C13.5,4.675 13.325,4.5 13.125,4.5 Z M6,4.5 L6,3.625 C6,3.425 6.175,3.25 6.375,3.25 L9.625,3.25 C9.825,3.25 10,3.425 10,3.625 L10,4.5 L6,4.5 Z M11.85,6 C11.65,6 11.475,6.175 11.475,6.375 L11.475,12.05 C11.475,12.425 11.175,12.75 10.775,12.75 L5.2,12.75 C4.825,12.75 4.5,12.45 4.5,12.05 L4.5,6.375 C4.5,6.175 4.325,6 4.125,6 C3.925,6 3.75,6.175 3.75,6.375 L3.75,12.05 C3.75,12.85 4.4,13.5 5.2,13.5 L10.8,13.5 C11.6,13.5 12.25,12.85 12.25,12.05 L12.25,6.375 C12.225,6.175 12.05,6 11.85,6 Z M6.95,11.625 L6.95,6.375 C6.95,6.175 6.775,6 6.575,6 C6.375,6 6.2,6.175 6.2,6.375 L6.2,11.625 C6.2,11.825 6.375,12 6.575,12 C6.775,12 6.95,11.825 6.95,11.625 Z M9.8,11.625 L9.8,6.375 C9.8,6.175 9.625,6 9.425,6 C9.225,6 9.05,6.175 9.05,6.375 L9.05,11.625 C9.05,11.825 9.225,12 9.425,12 C9.625,12 9.8,11.825 9.8,11.625 Z" id="形状" fill="#000000" fill-rule="nonzero"></path>
                </g>
            </g>
        </g>
    </g>
</svg>