<?xml version="1.0" encoding="UTF-8"?>
<svg width="16px" height="16px" viewBox="0 0 16 16" version="1.1" xmlns="http://www.w3.org/2000/svg" xmlns:xlink="http://www.w3.org/1999/xlink">
    <title>修改密码</title>
    <defs>
        <filter id="filter-1">
            <feColorMatrix in="SourceGraphic" type="matrix" values="0 0 0 0 0.457645 0 0 0 0 0.453164 0 0 0 0 0.552146 0 0 0 1.000000 0"></feColorMatrix>
        </filter>
    </defs>
    <g id="页面-1" stroke="none" stroke-width="1" fill="none" fill-rule="evenodd">
        <g id="修改密码" transform="translate(-360.000000, -88.000000)" filter="url(#filter-1)">
            <g transform="translate(360.000000, 88.000000)">
                <rect id="矩形" fill="#000000" fill-rule="nonzero" opacity="0" x="0" y="0" width="16" height="16"></rect>
                <path d="M5.55808,8.73376 C5.55008,8.744 5.54176,8.7552 5.53824,8.76864 L4.9104,11.08768 C4.87392,11.22272 4.91136,11.36864 5.01056,11.47104 C5.0848,11.54368 5.18272,11.584 5.28672,11.584 C5.32128,11.584 5.35584,11.57984 5.38976,11.57056 L7.67584,10.94272 C7.67936,10.94272 7.68096,10.94624 7.68352,10.94624 C7.71008,10.94624 7.73568,10.93632 7.7552,10.91616 L13.8672,4.75936 C14.04896,4.57632 14.14848,4.32672 14.14848,4.05536 C14.14848,3.74816 14.01888,3.44032 13.79232,3.21248 L13.21504,2.63008 C12.98848,2.4016 12.68288,2.27104 12.37824,2.27104 C12.1088,2.27104 11.86144,2.3712 11.67872,2.55392 L5.56704,8.71264 C5.56064,8.7184 5.56288,8.72704 5.55808,8.73376 L5.55808,8.73376 Z M13.26912,4.15616 L12.66208,4.76736 L11.67776,3.76 L12.27648,3.15744 C12.37088,3.06176 12.55488,3.07552 12.66304,3.18496 L13.24032,3.76768 C13.3008,3.8288 13.33536,3.90912 13.33536,3.9888 C13.33504,4.0544 13.31136,4.1136 13.26912,4.15616 L13.26912,4.15616 Z M6.64512,8.83072 L11.05536,4.38688 L12.03968,5.3952 L7.63808,9.82976 L6.64512,8.83072 L6.64512,8.83072 L6.64512,8.83072 M5.84128,10.632 L6.16,9.45344 L7.00992,10.30976 L5.84128,10.632 L5.84128,10.632 L5.84128,10.632 M13.65632,6.59616 C13.42464,6.59616 13.23488,6.78592 13.23424,7.02176 L13.23424,12.12192 C13.23424,12.93376 12.43232,13.3072 12.05248,13.3072 L3.69376,13.3072 C3.16096,13.3072 2.60832,12.78048 2.51136,11.80192 L2.51136,4.03296 C2.51136,2.81728 3.39488,2.84704 3.69376,2.84704 L9.26176,2.84704 C9.49408,2.84704 9.68288,2.65664 9.68288,2.4224 C9.68288,2.18848 9.49408,1.99776 9.26176,1.99776 L3.62976,1.99776 C2.90112,1.99776 1.66848,2.4544 1.66848,3.64896 L1.66848,11.86688 C1.66848,13.4736 2.67328,14.15776 3.62976,14.15776 L12.11648,14.15776 C13.19488,14.15776 14.07808,13.4832 14.07808,12.18688 L14.07808,7.01952 C14.07648,6.78592 13.88704,6.59616 13.65632,6.59616 L13.65632,6.59616 Z" id="形状" fill="#000000" fill-rule="nonzero"></path>
            </g>
        </g>
    </g>
</svg>